<mxfile host="app.diagrams.net" modified="2024-05-15T23:25:42.546Z" agent="Mozilla/5.0 (Macintosh; Intel Mac OS X 10.15; rv:125.0) Gecko/20100101 Firefox/125.0" version="23.1.5" etag="brCJklkL3J9svWs7H1yu" type="github">
  <diagram name="Page-1" id="_UY69B9CXhMb_ndGJ3RX">
    <mxGraphModel>
      <root>
        <mxCell id="0" />
        <mxCell id="1" parent="0" />
      </root>
    </mxGraphModel>
  </diagram>
</mxfile>
